#!OML:ASF F:\VICON\USERDATA\INSTALL\rory3\rory3.ASF
:FULLY-SPECIFIED
:DEGREES
95
root 0.688752 17.9781 -6.50618 -0.948776 -4.69544 -4.31656
lowerback 8.59886 2.11331 5.0789
upperback -0.321556 3.40377 1.43708
thorax -4.95436 1.56805 -1.77878
lowerneck -16.68 -3.45714 -1.06304
upperneck 21.6158 -4.53181 -0.0357906
head 9.61623 -2.19669 -0.428385
rclavicle -1.74123e-014 -2.82274e-014
rhumerus -26.5425 -16.771 -77.8323
rradius 31.9591
rwrist -1.22856
rhand -17.7147 23.1178
rfingers 7.12502
rthumb 8.54563 -6.68927
lclavicle -1.74123e-014 -2.82274e-014
lhumerus -36.8827 13.994 76.6893
lradius 16.0768
lwrist -2.69096
lhand -26.1328 19.3076
lfingers 7.12502
lthumb 0.41752 49.2869
rfemur 7.67427 1.72835 26.5427
rtibia 41.2396
rfoot 3.94058 6.39597
rtoes -5.03703
lfemur -24.6622 -0.938018 -18.9192
ltibia 28.0681
lfoot -1.0611 -0.0808134
ltoes 0.753955
96
root 0.707966 17.994 -6.30886 -1.11627 -4.86596 -4.35297
lowerback 8.82664 2.18244 5.11863
upperback -0.341143 3.51686 1.4547
thorax -5.09494 1.61854 -1.80753
lowerneck -16.7256 -3.42255 -0.928305
upperneck 21.7069 -4.49425 -0.146042
head 9.6502 -2.18007 -0.485831
rclavicle -4.15149e-014 -1.68967e-014
rhumerus -26.9463 -17.4994 -77.536
rradius 31.3437
rwrist -0.888686
rhand -17.51 22.8288
rfingers 7.12502
rthumb 8.74322 -6.97008
lclavicle -4.15149e-014 -1.68967e-014
lhumerus -36.6915 14.2255 76.5949
lradius 16.0514
lwrist -3.0506
lhand -25.9695 18.3402
lfingers 7.12502
lthumb 0.575227 48.3192
rfemur 6.44615 1.90507 26.3601
rtibia 43.7548
rfoot 6.72719 6.72711
rtoes -5.26607
lfemur -24.0813 -0.688413 -19.0456
ltibia 28.8029
lfoot -1.64124 -0.0128727
ltoes 2.2947
97
root 0.722368 18.0149 -6.11203 -1.33658 -5.00474 -4.10411
lowerback 9.07276 2.25523 4.74854
upperback -0.38652 3.59301 1.45602
thorax -5.29842 1.65978 -1.62316
lowerneck -16.6454 -3.40838 -0.862072
upperneck 21.8499 -4.47769 -0.219681
head 9.68201 -2.17496 -0.520367
rclavicle 1.47287e-014 1.76918e-014
rhumerus -27.585 -17.8832 -77.238
rradius 31.0222
rwrist -0.706444
rhand -17.2029 22.6568
rfingers 7.12502
rthumb 9.03958 -7.12946
lclavicle 1.47287e-014 1.76918e-014
lhumerus -36.4874 14.0898 76.7536
lradius 16.0866
lwrist -2.85112
lhand -25.5148 18.187
lfingers 7.12502
lthumb 1.01438 48.1644
rfemur 5.15275 2.10194 25.9092
rtibia 46.4459
rfoot 9.88093 6.88908
rtoes 2.02734
lfemur -23.2155 -0.557423 -19.4404
ltibia 29.115
lfoot -2.09228 0.294269
ltoes 0.865862
98
root 0.739646 18.0342 -5.91808 -1.47848 -5.07331 -3.73511
lowerback 9.24456 2.246 4.33188
upperback -0.513469 3.55025 1.42855
thorax -5.55419 1.64201 -1.42634
lowerneck -16.3275 -3.34912 -0.987294
upperneck 21.8559 -4.3803 -0.156388
head 9.62942 -2.13465 -0.458857
rclavicle -1.49834e-014 -1.03368e-014
rhumerus -28.2362 -17.9592 -76.9896
rradius 30.6204
rwrist -0.465896
rhand -17.191 22.7319
rfingers 7.12502
rthumb 9.05105 -7.05391
lclavicle -1.49834e-014 -1.03368e-014
lhumerus -36.4742 13.2996 77.2976
lradius 16.3746
lwrist -1.60818
lhand -25.5456 18.7116
lfingers 7.12502
lthumb 0.984624 48.6891
rfemur 3.66606 2.19692 25.311
rtibia 49.2735
rfoot 12.9567 6.90739
rtoes 8.53237
lfemur -22.2979 -0.549203 -19.9829
ltibia 29.0867
lfoot -2.62503 0.519501
ltoes 2.2328
99
root 0.750419 18.0555 -5.72898 -1.53897 -5.10734 -3.0851
lowerback 9.31636 2.28194 3.55491
upperback -0.608053 3.51354 1.3147
thorax -5.73399 1.64062 -1.11347
lowerneck -16.2471 -3.32987 -1.13706
upperneck 21.9469 -4.34324 -0.0441064
head 9.6531 -2.11693 -0.390163
rclavicle 1.52288e-014 -5.56597e-015
rhumerus -28.6266 -18.4979 -76.7323
rradius 30.0123
rwrist 0.0473679
rhand -17.1694 22.5636
rfingers 7.12502
rthumb 9.07185 -7.22129
lclavicle 1.52288e-014 -5.56597e-015
lhumerus -36.5874 11.8839 78.1529
lradius 17.2791
lwrist -0.0223539
lhand -25.6341 19.2857
lfingers 7.12502
lthumb 0.8991 49.2636
rfemur 1.95698 2.27685 24.4606
rtibia 52.1623
rfoot 15.4042 7.02296
rtoes 9.27499
lfemur -21.5486 -0.596625 -20.8359
ltibia 28.8378
lfoot -2.94632 0.680796
ltoes 4.88443
100
root 0.762807 18.0768 -5.54132 -1.58786 -4.88469 -2.29224
lowerback 9.44504 2.2738 2.77438
upperback -0.669853 3.40687 1.04344
thorax -5.9034 1.60442 -0.954154
lowerneck -16.552 -3.30969 -1.19481
upperneck 22.2631 -4.35603 0.178734
head 9.82945 -2.0981 -0.314844
rclavicle -1.72943e-014 3.97569e-016
rhumerus -28.9051 -19.1961 -76.5949
rradius 29.3694
rwrist 0.516811
rhand -17.0292 22.3288
rfingers 7.12502
rthumb 9.20719 -7.45019
lclavicle -1.72943e-014 3.97569e-016
lhumerus -36.6715 10.5123 78.7597
lradius 18.3547
lwrist 1.27627
lhand -25.3324 18.2196
lfingers 7.12502
lthumb 1.19052 48.1961
rfemur 0.165235 2.028 23.4085
rtibia 55.0443
rfoot 15.2759 6.40172
rtoes 11.3639
lfemur -20.8079 -0.728552 -21.8716
ltibia 28.5182
lfoot -3.15535 0.810327
ltoes 6.43694
101
root 0.777177 18.0869 -5.35266 -1.628 -4.7078 -1.79789
lowerback 9.43869 2.25123 2.3683
upperback -0.674023 3.31827 0.834887
thorax -5.91682 1.5702 -0.932365
lowerneck -16.498 -3.31372 -1.02545
upperneck 22.0868 -4.40404 0.171449
head 9.75252 -2.10843 -0.348521
rclavicle -6.37043e-015 1.31198e-014
rhumerus -29.2428 -19.414 -76.5972
rradius 28.892
rwrist 0.632013
rhand -17.3192 22.0521
rfingers 7.12502
rthumb 8.92736 -7.73899
lclavicle -6.37043e-015 1.31198e-014
lhumerus -36.4888 9.37108 79.2283
lradius 18.9786
lwrist 2.67109
lhand -25.5928 16.8494
lfingers 7.12502
lthumb 0.939009 46.8271
rfemur -1.4809 1.75461 22.6903
rtibia 57.829
rfoot 14.6088 6.0239
rtoes 10.6492
lfemur -19.9151 -0.717539 -22.5595
ltibia 28.2322
lfoot -3.57202 0.743049
ltoes 4.31964
